<?xml version="1.0" encoding="utf-8"?>
<!-- Uploaded to: SVG Repo, www.svgrepo.com, Generator: SVG Repo Mixer Tools -->
<svg width="800px" height="800px" viewBox="0 0 1024 1024" class="icon"  version="1.1" xmlns="http://www.w3.org/2000/svg"><path d="M520.51 506.876m-226.291 0a226.291 226.291 0 1 0 452.582 0 226.291 226.291 0 1 0-452.582 0Z" fill="#228E9D" /><path d="M302.798 707.113c-64.336 21.38-115.256 27.278-129.836 2.447-20.837-35.488 49.769-102.514 112.678-152.494l13.802 17.385c-100.734 80.029-111.64 116.558-107.343 123.877 13.766 23.442 161.564-17.505 361.801-135.062 89.557-52.586 169.606-108.886 225.403-158.528 63.697-56.682 72.87-84.702 68.82-91.601-4.337-7.39-41.966-15.654-162.398 34.173l-8.489-20.505c75.104-31.087 169.055-60.626 190.024-24.9 14.086 23.99-9.858 63.047-73.203 119.415-56.85 50.577-138.148 107.788-228.924 161.083-77.951 45.774-180.893 97.646-262.335 124.71z" fill="#300604" /></svg>